Coordinates
version=1
nRows=14
nColumns=36
inDegrees=yes

Units are S.I. units (second, meters, Newtons, ...)
If the header above contains a line with 'inDegrees', this indicates whether rotational values are in degrees (yes) or radians (no).

endheader
time	pelvis_tilt	pelvis_list	pelvis_rotation	pelvis_tx	pelvis_ty	pelvis_tz	hip_flexion_r	hip_adduction_r	hip_rotation_r	knee_angle_r	knee_angle_r_beta	ankle_angle_r	subtalar_angle_r	mtp_angle_r	hip_flexion_l	hip_adduction_l	hip_rotation_l	knee_angle_l	knee_angle_l_beta	ankle_angle_l	subtalar_angle_l	mtp_angle_l	lumbar_extension	lumbar_bending	lumbar_rotation	arm_flex_r	arm_add_r	arm_rot_r	elbow_flex_r	pro_sup_r	arm_flex_l	arm_add_l	arm_rot_l	elbow_flex_l	pro_sup_l
      0.00000000	     -1.50301529	     -2.38153382	      1.74646652	     -0.86477162	      1.29381752	     -0.10441956	      0.34673477	      0.95552096	     -6.86317567	      6.89420081	      0.12032650	      0.30419135	    -16.58156764	     -6.15098289	     -1.36722400	     -4.10909472	      0.00215632	      4.88955470	      0.08533883	      8.39633676	     -0.27882995	     -6.15098289	    -13.41934604	      2.05630566	     -2.04600602	     12.43067521	     -4.45558722	     20.83436185	     90.00345907	     98.29133120	     13.95496380	     -0.55833775	     23.54143844	     85.04861735	     95.53226391
      0.00416670	     -4.04132566	     -2.07555478	      1.87289875	     -0.86233133	      1.29227673	     -0.10514869	      3.63259942	      0.66960991	     -6.50799324	      8.55769919	      0.14936003	      3.56177737	    -14.49490272	     -6.75362478	      2.25321347	     -3.13615948	      1.94898569	      5.95907014	      0.10400539	      8.68283130	     -0.40718236	     -6.75362478	    -10.13969278	      1.92079324	     -1.92935707	     10.79181276	     -4.12734976	     18.37330228	     88.80623586	     89.40036223	     13.40457434	     -0.23018155	     23.01748298	     83.39120305	     84.74076420
      0.00833330	     -4.53375348	     -1.48097634	      1.69158039	     -0.86230463	      1.29200749	     -0.10368196	      3.90683365	      0.11511542	     -6.79599155	      7.94400935	      0.13864912	      4.32663932	    -13.90508229	     -6.82302198	      2.52824170	     -2.62360348	      1.80231482	      5.57259790	      0.09726018	      8.39184992	     -0.99825150	     -6.82302198	     -9.47511847	      1.00878956	     -1.77193956	     10.68505484	     -4.42453606	     19.13805020	     88.06511960	     88.20277887	     14.05117661	     -0.90874486	     23.14055048	     82.61687538	     83.05160512
      0.01250000	     -3.81582344	     -1.32000559	      1.73004827	     -0.86282013	      1.29552990	     -0.10334359	      2.87226870	     -0.00043493	     -7.09086392	      7.38260992	      0.12885085	      4.51953553	    -13.62531435	     -6.89344467	      1.28674705	     -2.41748904	      2.19979437	      4.86153761	      0.08484984	      7.94264548	     -1.97072912	     -6.89344467	    -10.46079062	      0.75467508	     -1.67431782	     10.69732835	     -4.71294327	     19.61513059	     87.30713031	     87.14485385	     14.96888039	     -1.46727331	     23.61649870	     82.11169438	     81.60476295
      0.01666670	     -3.42839322	     -1.24735859	      1.83338905	     -0.86342156	      1.29456123	     -0.10266640	      2.22980403	      0.05609648	     -7.03669989	      6.84966672	      0.11954924	      4.63891997	    -13.66666579	     -6.92685925	      0.65285556	     -2.30464731	      2.68969443	      4.39859204	      0.07676991	      7.77761826	     -2.75814635	     -6.92685925	    -11.05501825	      0.63738969	     -1.60163220	     10.51461887	     -4.71190423	     19.72148885	     87.50356653	     86.84294206	     15.45347863	     -1.78592704	     23.86791477	     82.16905056	     81.09755010
      0.02083330	     -3.08244114	     -1.22141329	      2.01116766	     -0.86384606	      1.29568527	     -0.10239915	      1.71051105	      0.16250754	     -6.86123944	      6.49652073	      0.11338568	      4.64644195	    -13.66707246	     -7.04428303	      0.27686018	     -2.29126588	      3.20196960	      4.27701838	      0.07464805	      7.45426413	     -3.67882851	     -7.04428303	    -11.59230260	      0.56534520	     -1.27461620	     10.15827057	     -4.72438122	     18.92972418	     88.24104472	     87.58247595	     15.86602356	     -1.81058521	     24.49277871	     82.17509744	     81.86895579
      0.02500000	     -2.87375541	     -1.21321625	      2.20610361	     -0.86447564	      1.29618302	     -0.10209168	      1.34180351	      0.25434687	     -6.77132452	      6.15246870	      0.10738084	      4.46424796	    -13.93213865	     -7.06901936	      0.07752179	     -2.27563463	      3.62552720	      4.20228286	      0.07334367	      7.30294872	     -4.16559909	     -7.06901936	    -11.90267919	      0.55418149	     -1.31543391	     10.07120036	     -4.57209104	     18.73110046	     88.73537109	     86.98396901	     15.76631834	     -1.72137298	     24.60392118	     82.49567612	     81.56386590
      0.02916670	     -2.70755947	     -1.20659665	      2.33728254	     -0.86385138	      1.29616717	     -0.10234448	      1.02425963	      0.32330895	     -6.68262696	      5.85526940	      0.10219373	      4.16693585	    -14.29408943	     -7.12633153	     -0.08920629	     -2.25875323	      4.01381304	      4.17987005	      0.07295249	      7.07101036	     -4.71799686	     -7.12633153	    -12.09087247	      0.54816943	     -1.34475739	      9.88507707	     -4.37428211	     18.72724644	     89.22800698	     85.00877841	     15.75507021	     -1.65463841	     24.73813318	     82.68464001	     80.10180469
      0.03333330	     -2.61240852	     -1.20338808	      2.41655295	     -0.86453451	      1.29873136	     -0.10224306	      0.79035266	      0.39493408	     -6.63354575	      5.52937239	      0.09650575	      3.68277921	    -14.75344798	     -7.19222857	     -0.19846663	     -2.24217117	      4.35339248	      4.08481039	      0.07129339	      6.80899521	     -4.93361609	     -7.19222857	    -12.26830147	      0.55688021	     -1.26903396	      9.82597797	     -4.29247386	     18.75136707	     89.46014294	     82.40152673	     15.69451263	     -1.54904645	     25.00037799	     82.78135615	     78.11215972
      0.03750000	     -2.43790870	     -1.22234783	      2.46419442	     -0.86359772	      1.29599058	     -0.10209587	      0.50036253	      0.47196631	     -6.65164719	      5.26667449	      0.09192081	      3.56436421	    -14.92367593	     -7.22533007	     -0.46107744	     -2.27201379	      4.56792594	      3.92986569	      0.06858910	      6.57471391	     -5.23333381	     -7.22533007	    -12.54804372	      0.61855052	     -0.94202993	      9.47254431	     -4.28059868	     18.26879938	     90.14234730	     82.22873985	     15.58324061	     -1.33671521	     25.30564467	     83.00032592	     79.30276274
      0.04166670	     -2.31506357	     -1.23736645	      2.48350937	     -0.86402127	      1.29454582	     -0.10228275	      0.27909104	      0.53538318	     -6.63464894	      5.04095580	      0.08798128	      3.31053891	    -15.30245760	     -7.24812239	     -0.63505051	     -2.28962646	      4.71919139	      3.83497262	      0.06693290	      6.58661016	     -5.27251995	     -7.24812239	    -12.71406176	      0.65520078	     -0.96926941	      9.45584650	     -4.30456307	     18.39641749	     90.40885788	     81.37324995	     15.45760386	     -1.36355736	     25.37427279	     83.32906571	     78.69205887
      0.04583330	     -2.20612334	     -1.25324126	      2.45287538	     -0.86337207	      1.29685323	     -0.10213118	      0.05351849	      0.58801360	     -6.57251595	      4.79803206	      0.08374146	      2.93735072	    -15.72433828	     -7.26310607	     -0.84179690	     -2.33076670	      4.86591632	      3.63117023	      0.06337588	      6.47867952	     -5.20880605	     -7.26310607	    -12.83794912	      0.71880227	     -0.93374953	      9.44189098	     -4.33608395	     18.45179638	     90.54695452	     80.72809566	     15.52146784	     -1.40164615	     25.18700742	     83.35575855	     78.22111830
      0.05000000	     -2.09088203	     -1.24985981	      2.45462349	     -0.86381083	      1.30004336	     -0.10222801	     -0.14617650	      0.62191800	     -6.48541674	      4.61830307	      0.08060459	      2.57433729	    -16.10998636	     -7.30405675	     -1.05605528	     -2.35088519	      5.15593806	      3.40576774	      0.05944186	      6.18632475	     -5.36648665	     -7.30405675	    -13.00603591	      0.74407525	     -0.98760064	      9.50542432	     -4.39369836	     18.71365555	     90.43478368	     78.73138392	     15.73670855	     -1.40758041	     25.05310543	     83.12956692	     76.46058496
      0.05416670	     -1.97934250	     -1.25664736	      2.47828843	     -0.86217586	      1.29876131	     -0.10187933	     -0.39967123	      0.66933033	     -6.40398082	      4.35732923	      0.07604974	      2.35104783	    -16.36136889	     -7.33185548	     -1.33076770	     -2.39263983	      5.35967884	      3.14160909	      0.05483142	      6.11878581	     -5.20507213	     -7.33185548	    -13.07015035	      0.78904650	     -0.98937258	      9.45110732	     -4.47999120	     18.96257253	     90.47992433	     77.23338281	     15.66714258	     -1.40110230	     24.91533545	     83.06014586	     75.07144371
